<?xml version="1.0" encoding="UTF-8"?>
<svg width="1440" height="900" viewBox="0 0 1440 900" fill="none" xmlns="http://www.w3.org/2000/svg">
<defs>
  <linearGradient id="appGlow" x1="0" y1="0" x2="1440" y2="900">
    <stop offset="0" stop-color="#17262F"/>
    <stop offset="0.38" stop-color="#0A1015"/>
    <stop offset="1" stop-color="#0B1116"/>
  </linearGradient>
  <linearGradient id="activeNav" x1="0" y1="0" x2="230" y2="0">
    <stop offset="0" stop-color="#164B41"/>
    <stop offset="1" stop-color="#17232A"/>
  </linearGradient>
  <linearGradient id="cardGlow" x1="0" y1="0" x2="1" y2="1">
    <stop offset="0" stop-color="#18252E"/>
    <stop offset="1" stop-color="#0F171D"/>
  </linearGradient>
  <filter id="shadow" x="-10%" y="-10%" width="120%" height="120%">
    <feDropShadow dx="0" dy="20" stdDeviation="24" flood-color="#000000" flood-opacity="0.28"/>
  </filter>
  <style>
    .cn { font-family: -apple-system, BlinkMacSystemFont, 'SF Pro Display', 'PingFang SC', 'Noto Sans SC', sans-serif; }
    .mono { font-family: 'SF Mono', ui-monospace, Menlo, monospace; }
  </style>
</defs>

    <rect x="0" y="0" width="1440" height="900" rx="10" fill="#070B0F" />
    <rect x="2" y="2" width="1436" height="896" rx="10" fill="url(#appGlow)" stroke="#33444E" />
    <rect x="2" y="2" width="1436" height="42" rx="10" fill="#0B1116" />
    <circle cx="20" cy="24" r="6" fill="#FF5F57" opacity="1"/><circle cx="40" cy="24" r="6" fill="#FFBD2E" opacity="1"/><circle cx="60" cy="24" r="6" fill="#28C840" opacity="1"/>
    <g transform="translate(82,11)">
    <path d="M14 2 L26 8.5 V21.5 L14 28 L2 21.5 V8.5 L14 2Z" fill="#23D391"/>
    <path d="M14 2 L26 8.5 L14 15 L2 8.5 L14 2Z" fill="#70F0B7"/>
    <path d="M2 8.5 L14 15 V28 L2 21.5 V8.5Z" fill="#1AA779"/>
    <path d="M26 8.5 L14 15 V28 L26 21.5 V8.5Z" fill="#22C98E"/>
    <path d="M14 15 L14 28" stroke="#0B6A53" stroke-width="1.4"/>
  </g><text x="122" y="30" class="cn" font-size="14" font-weight="800" fill="#E7EEF3" >Local Memory Hub</text>
    <rect x="580" y="10" width="300" height="34" rx="16" fill="#0B1116" stroke="#33444E" />
    <circle cx="600" cy="27" r="6" fill="none" opacity="1" stroke="#91A0AA"/><line x1="604" y1="31" x2="610" y2="37" stroke="#91A0AA" stroke-opacity="1" stroke-width="1.5"/>
    <text x="626" y="31" class="cn" font-size="13" font-weight="500" fill="#91A0AA" >搜索记忆、节点、标签…</text><text x="836" y="31" class="mono" font-size="11" font-weight="700" fill="#91A0AA" >⌘K</text>
    <text x="1328" y="29" class="cn" font-size="18" font-weight="500" fill="#91A0AA" >—</text><rect x="1364" y="18" width="10" height="10" rx="1" fill="none" stroke="#91A0AA" /><line x1="1407" y1="18" x2="1398" y2="28" stroke="#91A0AA" stroke-opacity="1" stroke-width="1.3"/><line x1="1398" y1="18" x2="1407" y2="28" stroke="#91A0AA" stroke-opacity="1" stroke-width="1.3"/>
    <rect x="2" y="44" width="226" height="854" rx="0" fill="#0B1218" /><line x1="228" y1="44" x2="228" y2="898" stroke="#33444E" stroke-opacity="1" stroke-width="1"/>
    <text x="28" y="92" class="cn" font-size="12" font-weight="500" fill="#65737D" >工作区</text>
    
    
    <g><path d="M29 122 L40 113 L51 122" stroke="#B5C0C8" stroke-width="1.7" stroke-linecap="round" stroke-linejoin="round"/><path d="M33 121 V133 H47 V121" stroke="#B5C0C8" stroke-width="1.7" stroke-linecap="round" stroke-linejoin="round"/></g>
    <text x="66" y="129" class="cn" font-size="14" font-weight="600" fill="#BCC7CF" >概览</text>
    
    <g><circle cx="33" cy="164" r="2.6" fill="#B5C0C8" opacity="1"/><circle cx="48" cy="163" r="2.6" fill="#B5C0C8" opacity="1"/><circle cx="44" cy="178" r="2.6" fill="#B5C0C8" opacity="1"/><path d="M35 165 L46 163 M34 166 L42 176 M47 166 L45 176" stroke="#B5C0C8" stroke-width="1.7" stroke-linecap="round" stroke-linejoin="round"/></g>
    <text x="66" y="177" class="cn" font-size="14" font-weight="600" fill="#BCC7CF" >图谱</text>
    
    <g><path d="M33 210 H43 L49 216 V229 H33 Z" stroke="#B5C0C8" stroke-width="1.7" stroke-linecap="round" stroke-linejoin="round"/><path d="M43 210 V216 H49" stroke="#B5C0C8" stroke-width="1.7" stroke-linecap="round" stroke-linejoin="round"/></g>
    <text x="66" y="225" class="cn" font-size="14" font-weight="600" fill="#BCC7CF" >源资料库</text>
    
    <g><path d="M32 260 H50 V272 H40 L35 277 V272 H32 Z" stroke="#B5C0C8" stroke-width="1.7" stroke-linecap="round" stroke-linejoin="round"/><path d="M37 265 H46 M37 269 H43" stroke="#B5C0C8" stroke-width="1.7" stroke-linecap="round" stroke-linejoin="round"/></g>
    <text x="66" y="273" class="cn" font-size="14" font-weight="600" fill="#BCC7CF" >搜索与问答</text><rect x="12" y="292" width="206" height="44" rx="8" fill="url(#activeNav)" />
    <rect x="12" y="292" width="3" height="44" rx="2" fill="#31D49B" />
    <g><path d="M41 305 V320" stroke="#31D49B" stroke-width="1.7" stroke-linecap="round" stroke-linejoin="round"/><path d="M35 314 L41 320 L47 314" stroke="#31D49B" stroke-width="1.7" stroke-linecap="round" stroke-linejoin="round"/><path d="M32 325 H50" stroke="#31D49B" stroke-width="1.7" stroke-linecap="round" stroke-linejoin="round"/></g>
    <text x="66" y="321" class="cn" font-size="14" font-weight="800" fill="#BFFFE7" >导入中心</text>
    <line x1="28" y1="366" x2="208" y2="366" stroke="#26343D" stroke-opacity="1" stroke-width="1"/>
    <text x="28" y="406" class="cn" font-size="12" font-weight="500" fill="#65737D" >数据与集成</text>
    
    
    <g><path d="M41 427 L50 431 V438 C50 444 46 447 41 449 C36 447 32 444 32 438 V431 Z" stroke="#B5C0C8" stroke-width="1.7" stroke-linecap="round" stroke-linejoin="round"/><path d="M37 438 L40 441 L46 434" stroke="#B5C0C8" stroke-width="1.7" stroke-linecap="round" stroke-linejoin="round"/></g>
    <text x="66" y="443" class="cn" font-size="14" font-weight="600" fill="#BCC7CF" >污染治理</text>
    
    <g><ellipse cx="41" cy="478" rx="9" ry="4" stroke="#B5C0C8" stroke-width="1.7" stroke-linecap="round" stroke-linejoin="round"/><path d="M32 478 V492 C32 497 50 497 50 492 V478 M32 485 C32 490 50 490 50 485" stroke="#B5C0C8" stroke-width="1.7" stroke-linecap="round" stroke-linejoin="round"/></g>
    <text x="66" y="491" class="cn" font-size="14" font-weight="600" fill="#BCC7CF" >向量索引</text>
    
    <g><path d="M33 525 H44 L50 531 L40 542 L30 532 Z" stroke="#B5C0C8" stroke-width="1.7" stroke-linecap="round" stroke-linejoin="round"/><circle cx="41" cy="529" r="1.8" fill="#B5C0C8" opacity="1"/></g>
    <text x="66" y="539" class="cn" font-size="14" font-weight="600" fill="#BCC7CF" >标签管理</text>
    <line x1="28" y1="704" x2="208" y2="704" stroke="#26343D" stroke-opacity="1" stroke-width="1"/>
    <text x="28" y="740" class="cn" font-size="12" font-weight="600" fill="#91A0AA" >本地存储</text>
    <rect x="28" y="758" width="180" height="7" rx="4" fill="#1D2B33" /><rect x="28" y="758" width="64" height="7" rx="4" fill="#31D49B" />
    <text x="28" y="786" class="cn" font-size="12" font-weight="500" fill="#91A0AA" >482.6 GB / 1.0 TB</text>
    <circle cx="36" cy="842" r="16" fill="#375B4E" opacity="1"/><text x="31" y="847" class="cn" font-size="13" font-weight="800" fill="#E8FFF4" >L</text><text x="66" y="840" class="cn" font-size="13" font-weight="700" fill="#E7EEF3" >Local User</text><text x="66" y="860" class="cn" font-size="11" font-weight="700" fill="#31D49B" >本地模式</text>
    <rect x="228" y="44" width="1210" height="854" rx="0" fill="#0D151B" />
    <text x="254" y="92" class="cn" font-size="24" font-weight="900" fill="#E7EEF3" >导入中心</text>
    <text x="254" y="118" class="cn" font-size="13" font-weight="500" fill="#91A0AA" >资料入口必须低摩擦：文件、外部文档、链接、聊天软件接收内容都能进入本地解析循环。</text>
    
    <text x="262" y="164" class="cn" font-size="14" font-weight="900" fill="#31D49B" >快速导入</text><rect x="258" y="176" width="74" height="2" rx="1" fill="#31D49B" />
    <text x="372" y="164" class="cn" font-size="14" font-weight="700" fill="#91A0AA" >导入历史</text><text x="486" y="164" class="cn" font-size="14" font-weight="700" fill="#91A0AA" >连接器管理</text><text x="620" y="164" class="cn" font-size="14" font-weight="700" fill="#91A0AA" >导入规则</text>
    <line x1="254" y1="188" x2="930" y2="188" stroke="#33444E" stroke-opacity="1" stroke-width="1"/>
    <rect x="254" y="208" width="220" height="108" rx="9" fill="#141F27" stroke="#33444E" /><rect x="272" y="232" width="46" height="46" rx="10" fill="#126249" /><text x="295" y="264" class="cn" font-size="28" font-weight="900" fill="#31D49B" text-anchor="middle">T</text><text x="336" y="246" class="cn" font-size="17" font-weight="900" fill="#E7EEF3" >文本</text><text x="336" y="272" class="cn" font-size="12" font-weight="500" fill="#91A0AA" >粘贴或输入文本内容</text><text x="336" y="294" class="cn" font-size="12" font-weight="500" fill="#91A0AA" >快速导入</text><rect x="490" y="208" width="220" height="108" rx="9" fill="#141F27" stroke="#33444E" /><rect x="508" y="232" width="46" height="46" rx="10" fill="#1B4D89" /><text x="531" y="264" class="cn" font-size="28" font-weight="900" fill="#5FA8FF" text-anchor="middle">▣</text><text x="572" y="246" class="cn" font-size="17" font-weight="900" fill="#E7EEF3" >文件</text><text x="572" y="272" class="cn" font-size="12" font-weight="500" fill="#91A0AA" >支持多种格式文档</text><text x="572" y="294" class="cn" font-size="12" font-weight="500" fill="#91A0AA" >批量导入</text><rect x="726" y="208" width="220" height="108" rx="9" fill="#141F27" stroke="#33444E" /><rect x="744" y="232" width="46" height="46" rx="10" fill="#29343C" /><text x="767" y="264" class="cn" font-size="28" font-weight="900" fill="#91A0AA" text-anchor="middle">↗</text><text x="808" y="246" class="cn" font-size="17" font-weight="900" fill="#E7EEF3" >分享链接</text><text x="808" y="272" class="cn" font-size="12" font-weight="500" fill="#91A0AA" >输入网页或分享链接</text><text x="808" y="294" class="cn" font-size="12" font-weight="500" fill="#91A0AA" >自动抓取内容</text>
    <rect x="254" y="334" width="692" height="88" rx="10" fill="#0D151B" stroke="#33444E" stroke-dasharray="6 4"/><text x="600" y="374" class="cn" font-size="16" font-weight="900" fill="#E7EEF3" text-anchor="middle">拖入文件或点击选择</text><text x="600" y="402" class="cn" font-size="12" font-weight="500" fill="#91A0AA" text-anchor="middle">支持 PDF、DOCX、TXT、MD、HTML、EPUB、图片等（单文件最大 200MB）</text><rect x="842" y="362" width="84" height="34" rx="6" fill="none" stroke="#31D49B" /><text x="884" y="384" class="cn" font-size="13" font-weight="900" fill="#31D49B" text-anchor="middle">选择文件</text>
    <text x="254" y="464" class="cn" font-size="16" font-weight="900" fill="#E7EEF3" >外部文档</text>
    <rect x="254" y="482" width="220" height="118" rx="9" fill="#141F27" stroke="#33444E" /><g transform="translate(274,506)">
    <path d="M14 2 L26 8.5 V21.5 L14 28 L2 21.5 V8.5 L14 2Z" fill="#23D391"/>
    <path d="M14 2 L26 8.5 L14 15 L2 8.5 L14 2Z" fill="#70F0B7"/>
    <path d="M2 8.5 L14 15 V28 L2 21.5 V8.5Z" fill="#1AA779"/>
    <path d="M26 8.5 L14 15 V28 L26 21.5 V8.5Z" fill="#22C98E"/>
    <path d="M14 15 L14 28" stroke="#0B6A53" stroke-width="1.4"/>
  </g><text x="336" y="522" class="cn" font-size="15" font-weight="900" fill="#E7EEF3" >飞书文档</text><text x="336" y="550" class="cn" font-size="12" font-weight="500" fill="#91A0AA" >导入飞书文档到本地</text><rect x="274" y="560" width="180" height="32" rx="5" fill="#0F171D" stroke="#33444E" /><text x="364" y="581" class="cn" font-size="13" font-weight="800" fill="#E7EEF3" text-anchor="middle">连接</text><rect x="490" y="482" width="220" height="118" rx="9" fill="#141F27" stroke="#33444E" /><g transform="translate(510,506)">
    <path d="M14 2 L26 8.5 V21.5 L14 28 L2 21.5 V8.5 L14 2Z" fill="#23D391"/>
    <path d="M14 2 L26 8.5 L14 15 L2 8.5 L14 2Z" fill="#70F0B7"/>
    <path d="M2 8.5 L14 15 V28 L2 21.5 V8.5Z" fill="#1AA779"/>
    <path d="M26 8.5 L14 15 V28 L26 21.5 V8.5Z" fill="#22C98E"/>
    <path d="M14 15 L14 28" stroke="#0B6A53" stroke-width="1.4"/>
  </g><text x="572" y="522" class="cn" font-size="15" font-weight="900" fill="#E7EEF3" >有道云笔记</text><text x="572" y="550" class="cn" font-size="12" font-weight="500" fill="#91A0AA" >导入有道云笔记内容</text><rect x="510" y="560" width="180" height="32" rx="5" fill="#0F171D" stroke="#33444E" /><text x="600" y="581" class="cn" font-size="13" font-weight="800" fill="#E7EEF3" text-anchor="middle">连接</text><rect x="726" y="482" width="220" height="118" rx="9" fill="#141F27" stroke="#33444E" /><g transform="translate(746,506)">
    <path d="M14 2 L26 8.5 V21.5 L14 28 L2 21.5 V8.5 L14 2Z" fill="#23D391"/>
    <path d="M14 2 L26 8.5 L14 15 L2 8.5 L14 2Z" fill="#70F0B7"/>
    <path d="M2 8.5 L14 15 V28 L2 21.5 V8.5Z" fill="#1AA779"/>
    <path d="M26 8.5 L14 15 V28 L26 21.5 V8.5Z" fill="#22C98E"/>
    <path d="M14 15 L14 28" stroke="#0B6A53" stroke-width="1.4"/>
  </g><text x="808" y="522" class="cn" font-size="15" font-weight="900" fill="#E7EEF3" >微信文件</text><text x="808" y="550" class="cn" font-size="12" font-weight="500" fill="#91A0AA" >导入本地微信接收的文件</text><rect x="746" y="560" width="180" height="32" rx="5" fill="#0F171D" stroke="#33444E" /><text x="836" y="581" class="cn" font-size="13" font-weight="800" fill="#E7EEF3" text-anchor="middle">打开目录</text>
    <rect x="254" y="622" width="692" height="228" rx="10" fill="#0F171D" stroke="#33444E" />
    <text x="276" y="654" class="cn" font-size="15" font-weight="900" fill="#E7EEF3" >最近导入</text><text x="880" y="654" class="cn" font-size="12" font-weight="700" fill="#9CCBFF" >查看全部</text>
    <line x1="254" y1="672" x2="946" y2="672" stroke="#26343D" stroke-opacity="1" stroke-width="1"/><text x="276" y="700" class="cn" font-size="12" font-weight="700" fill="#E7EEF3" >人工智能发展报告2024.pdf</text><text x="540" y="700" class="cn" font-size="12" font-weight="500" fill="#91A0AA" >文件导入</text><text x="680" y="700" class="cn" font-size="12" font-weight="500" fill="#91A0AA" >24.6 MB</text><text x="820" y="700" class="cn" font-size="12" font-weight="800" fill="#31D49B" >已入记忆</text><line x1="254" y1="708" x2="946" y2="708" stroke="#26343D" stroke-opacity="1" stroke-width="1"/><text x="276" y="736" class="cn" font-size="12" font-weight="700" fill="#E7EEF3" >产品需求文档_v2.1.docx</text><text x="540" y="736" class="cn" font-size="12" font-weight="500" fill="#91A0AA" >文件导入</text><text x="680" y="736" class="cn" font-size="12" font-weight="500" fill="#91A0AA" >2.1 MB</text><text x="820" y="736" class="cn" font-size="12" font-weight="800" fill="#31D49B" >已入记忆</text><line x1="254" y1="744" x2="946" y2="744" stroke="#26343D" stroke-opacity="1" stroke-width="1"/><text x="276" y="772" class="cn" font-size="12" font-weight="700" fill="#E7EEF3" >https://mp.weixin.qq.com/s/abc123…</text><text x="540" y="772" class="cn" font-size="12" font-weight="500" fill="#91A0AA" >分享链接</text><text x="680" y="772" class="cn" font-size="12" font-weight="500" fill="#91A0AA" >1.2 MB</text><text x="820" y="772" class="cn" font-size="12" font-weight="800" fill="#31D49B" >已入记忆</text><line x1="254" y1="780" x2="946" y2="780" stroke="#26343D" stroke-opacity="1" stroke-width="1"/><text x="276" y="808" class="cn" font-size="12" font-weight="700" fill="#E7EEF3" >《暗时间》读书笔记.pdf</text><text x="540" y="808" class="cn" font-size="12" font-weight="500" fill="#91A0AA" >有道云笔记</text><text x="680" y="808" class="cn" font-size="12" font-weight="500" fill="#91A0AA" >24.6 MB</text><text x="820" y="808" class="cn" font-size="12" font-weight="800" fill="#31D49B" >已入记忆</text><line x1="254" y1="816" x2="946" y2="816" stroke="#26343D" stroke-opacity="1" stroke-width="1"/><text x="276" y="844" class="cn" font-size="12" font-weight="700" fill="#E7EEF3" >会议记录_2024-05-20.txt</text><text x="540" y="844" class="cn" font-size="12" font-weight="500" fill="#91A0AA" >文件导入</text><text x="680" y="844" class="cn" font-size="12" font-weight="500" fill="#91A0AA" >89 KB</text><text x="820" y="844" class="cn" font-size="12" font-weight="800" fill="#F25F5C" >解析失败</text>
  
    
    <line x1="974" y1="44" x2="974" y2="898" stroke="#33444E" stroke-opacity="1" stroke-width="1"/>
    <text x="1000" y="92" class="cn" font-size="18" font-weight="900" fill="#E7EEF3" >处理队列</text><circle cx="1092" cy="86" r="10" fill="#141F27" opacity="1" stroke="#33444E"/><text x="1092" y="91" class="cn" font-size="12" font-weight="900" fill="#E7EEF3" text-anchor="middle">5</text><text x="1340" y="92" class="cn" font-size="13" font-weight="700" fill="#E7EEF3" >全部暂停</text>
    <rect x="1000" y="118" width="386" height="210" rx="8" fill="#0F171D" stroke="#33444E" />
    <rect x="1014" y="132" width="22" height="22" rx="4" fill="#223543" stroke="#33444E" /><text x="1048" y="148" class="cn" font-size="13" font-weight="700" fill="#E7EEF3" >人工智能发展报告2024.pdf</text><text x="1048" y="168" class="cn" font-size="11" font-weight="500" fill="#91A0AA" >24.6 MB · PDF</text><text x="1310" y="148" class="cn" font-size="12" font-weight="800" fill="#5FA8FF" >解析中 62%</text><rect x="1048" y="176" width="230" height="4" rx="2" fill="#22303A" /><rect x="1048" y="176" width="145" height="4" rx="2" fill="#5FA8FF" /><line x1="1000" y1="160" x2="1386" y2="160" stroke="#26343D" stroke-opacity="1" stroke-width="1"/><rect x="1014" y="174" width="22" height="22" rx="4" fill="#223543" stroke="#33444E" /><text x="1048" y="190" class="cn" font-size="13" font-weight="700" fill="#E7EEF3" >产品需求文档_v2.1.docx</text><text x="1048" y="210" class="cn" font-size="11" font-weight="500" fill="#91A0AA" >2.1 MB · DOCX</text><text x="1310" y="190" class="cn" font-size="12" font-weight="800" fill="#5FA8FF" >解析中 28%</text><rect x="1048" y="218" width="230" height="4" rx="2" fill="#22303A" /><rect x="1048" y="218" width="66" height="4" rx="2" fill="#5FA8FF" /><line x1="1000" y1="202" x2="1386" y2="202" stroke="#26343D" stroke-opacity="1" stroke-width="1"/><rect x="1014" y="216" width="22" height="22" rx="4" fill="#223543" stroke="#33444E" /><text x="1048" y="232" class="cn" font-size="13" font-weight="700" fill="#E7EEF3" >https://mp.weixin.qq.com/s/abc123…</text><text x="1048" y="252" class="cn" font-size="11" font-weight="500" fill="#91A0AA" >网页 · 1.2 MB</text><text x="1310" y="232" class="cn" font-size="12" font-weight="800" fill="#D9A52C" >等待中</text><line x1="1000" y1="244" x2="1386" y2="244" stroke="#26343D" stroke-opacity="1" stroke-width="1"/><rect x="1014" y="258" width="22" height="22" rx="4" fill="#223543" stroke="#33444E" /><text x="1048" y="274" class="cn" font-size="13" font-weight="700" fill="#E7EEF3" >设计系统使用指南.pdf</text><text x="1048" y="294" class="cn" font-size="11" font-weight="500" fill="#91A0AA" >8.7 MB · PDF</text><text x="1310" y="274" class="cn" font-size="12" font-weight="800" fill="#D9A52C" >等待重试</text><line x1="1000" y1="286" x2="1386" y2="286" stroke="#26343D" stroke-opacity="1" stroke-width="1"/><rect x="1014" y="300" width="22" height="22" rx="4" fill="#28413A" stroke="#33444E" /><text x="1048" y="316" class="cn" font-size="13" font-weight="700" fill="#E7EEF3" >会议纪要_2024-05-18.txt</text><text x="1048" y="336" class="cn" font-size="11" font-weight="500" fill="#91A0AA" >56 KB · TXT</text><text x="1310" y="316" class="cn" font-size="12" font-weight="800" fill="#F25F5C" >解析失败</text>
    <text x="1000" y="372" class="cn" font-size="16" font-weight="900" fill="#E7EEF3" >解析流水线</text>
    <circle cx="1014" cy="414" r="12" fill="#103D35" opacity="1" stroke="#31D49B"/><line x1="1014" y1="426" x2="1014" y2="454" stroke="#31D49B" stroke-opacity="1" stroke-width="2"/><rect x="1046" y="396" width="292" height="42" rx="7" fill="#141F27" stroke="#33444E" /><text x="1062" y="420" class="cn" font-size="13" font-weight="800" fill="#E7EEF3" >保存源文件</text><text x="1298" y="420" class="cn" font-size="12" font-weight="800" fill="#31D49B" >已完成</text><circle cx="1014" cy="466" r="12" fill="#103D35" opacity="1" stroke="#31D49B"/><line x1="1014" y1="478" x2="1014" y2="506" stroke="#31D49B" stroke-opacity="1" stroke-width="2"/><rect x="1046" y="448" width="292" height="42" rx="7" fill="#141F27" stroke="#33444E" /><text x="1062" y="472" class="cn" font-size="13" font-weight="800" fill="#E7EEF3" >本地解析</text><text x="1298" y="472" class="cn" font-size="12" font-weight="800" fill="#31D49B" >已完成</text><circle cx="1014" cy="518" r="12" fill="#12335A" opacity="1" stroke="#5FA8FF"/><line x1="1014" y1="530" x2="1014" y2="558" stroke="#33444E" stroke-opacity="1" stroke-width="2"/><rect x="1046" y="500" width="292" height="42" rx="7" fill="#141F27" stroke="#33444E" /><text x="1062" y="524" class="cn" font-size="13" font-weight="800" fill="#E7EEF3" >LLM 兜底</text><text x="1298" y="524" class="cn" font-size="12" font-weight="800" fill="#5FA8FF" >进行中</text><circle cx="1014" cy="570" r="12" fill="#222B31" opacity="1" stroke="#33444E"/><line x1="1014" y1="582" x2="1014" y2="610" stroke="#33444E" stroke-opacity="1" stroke-width="2"/><rect x="1046" y="552" width="292" height="42" rx="7" fill="#141F27" stroke="#33444E" /><text x="1062" y="576" class="cn" font-size="13" font-weight="800" fill="#91A0AA" >生成文本片段</text><text x="1298" y="576" class="cn" font-size="12" font-weight="800" fill="#91A0AA" >等待中</text><circle cx="1014" cy="622" r="12" fill="#222B31" opacity="1" stroke="#33444E"/><line x1="1014" y1="634" x2="1014" y2="662" stroke="#33444E" stroke-opacity="1" stroke-width="2"/><rect x="1046" y="604" width="292" height="42" rx="7" fill="#141F27" stroke="#33444E" /><text x="1062" y="628" class="cn" font-size="13" font-weight="800" fill="#91A0AA" >写入向量索引</text><text x="1298" y="628" class="cn" font-size="12" font-weight="800" fill="#91A0AA" >等待中</text><circle cx="1014" cy="674" r="12" fill="#222B31" opacity="1" stroke="#33444E"/><line x1="1014" y1="686" x2="1014" y2="714" stroke="#33444E" stroke-opacity="1" stroke-width="2"/><rect x="1046" y="656" width="292" height="42" rx="7" fill="#141F27" stroke="#33444E" /><text x="1062" y="680" class="cn" font-size="13" font-weight="800" fill="#91A0AA" >生成图谱节点</text><text x="1298" y="680" class="cn" font-size="12" font-weight="800" fill="#91A0AA" >等待中</text><circle cx="1014" cy="726" r="12" fill="#103D35" opacity="1" stroke="#31D49B"/><rect x="1046" y="708" width="292" height="42" rx="7" fill="#141F27" stroke="#33444E" /><text x="1062" y="732" class="cn" font-size="13" font-weight="800" fill="#E7EEF3" >已入记忆</text><text x="1298" y="732" class="cn" font-size="12" font-weight="800" fill="#91A0AA" >等待中</text>
    <text x="1000" y="872" class="cn" font-size="12" font-weight="500" fill="#91A0AA" >所有处理均在本地完成，数据安全可控。</text>
  
  
</svg>