<?xml version="1.0" encoding="UTF-8"?>
<svg width="1440" height="900" viewBox="0 0 1440 900" fill="none" xmlns="http://www.w3.org/2000/svg">
  <defs>
    <filter id="shadow" x="0" y="0" width="1440" height="900" filterUnits="userSpaceOnUse" color-interpolation-filters="sRGB">
      <feDropShadow dx="0" dy="24" stdDeviation="32" flood-color="#000000" flood-opacity="0.26"/>
    </filter>
    <style>
      .cn { font-family: -apple-system, BlinkMacSystemFont, 'SF Pro Display', 'Noto Sans SC', 'PingFang SC', sans-serif; }
      .mono { font-family: 'SF Mono', ui-monospace, Menlo, monospace; }
    </style>
  </defs>
  
    <rect x="0" y="0" width="1440" height="900" rx="24" fill="#E6E6E4" />
    <rect x="42" y="36" width="1356" height="828" rx="18" fill="#F8F5EF" stroke="#DED8CD" filter="url(#shadow)"/>
    <rect x="42" y="36" width="1356" height="62" rx="18" fill="#F8F5EF" />
    <line x1="42" y1="98" x2="1398" y2="98" stroke="#DED8CD"/>
    <circle cx="68" cy="66" r="6" fill="#FF5F57" opacity="1"/><circle cx="88" cy="66" r="6" fill="#FEBC2E" opacity="1"/><circle cx="108" cy="66" r="6" fill="#28C840" opacity="1"/>
    
    <g transform="translate(132,52)">
      <path d="M2 6.2 C2 4.6 3.7 3.6 5.1 4.4 L13.2 9.1 V22.8 L4.5 18.3 C3 17.6 2 16.1 2 14.4 V6.2Z" fill="#63D995"/>
      <path d="M26 6.2 C26 4.6 24.3 3.6 22.9 4.4 L14.8 9.1 V22.8 L23.5 18.3 C25 17.6 26 16.1 26 14.4 V6.2Z" fill="#4FC383"/>
      <path d="M5.2 4.5 L14 9.5 L22.8 4.5 L14 1.8 L5.2 4.5Z" fill="#8AF0B5"/>
      <path d="M13.2 9.1 L14 9.5 L14.8 9.1 V22.8 L14 23.2 L13.2 22.8 V9.1Z" fill="#2F8C63" opacity="0.78"/>
    </g>
    <text x="170" y="71" class="cn" font-size="14" font-weight="700" fill="#25221D" >Local Memory Hub</text>
    <rect x="542" y="50" width="356" height="34" rx="17" fill="#FBFAF7" stroke="#D6CFC3" />
    <circle cx="562" cy="67" r="5" fill="#7B746A" opacity="1"/>
    <text x="580" y="72" class="cn" font-size="13" font-weight="500" fill="#7B746A" >搜索，或向本地记忆提问</text>
    <rect x="1152" y="50" width="138" height="34" rx="17" fill="#FBFAF7" stroke="#D6CFC3" />
    <circle cx="1172" cy="67" r="5" fill="#4F8B62" opacity="1"/>
    <text x="1190" y="72" class="cn" font-size="12" font-weight="700" fill="#25221D" >模型已连接</text>
    <rect x="1304" y="50" width="72" height="34" rx="17" fill="#FBFAF7" stroke="#D6CFC3" />
    <text x="1322" y="72" class="cn" font-size="12" font-weight="700" fill="#7B746A" >队列 3</text>
    <rect x="42" y="98" width="224" height="766" rx="0" fill="#F2EEE6" />
    <line x1="266" y1="98" x2="266" y2="864" stroke="#DED8CD"/>
    <text x="68" y="148" class="cn" font-size="22" font-weight="800" fill="#25221D" >记忆库</text>
    <text x="68" y="170" class="cn" font-size="12" font-weight="500" fill="#7B746A" >本地数据可升级保留</text>
    
    <rect x="58" y="206" width="192" height="38" rx="10" fill="#F2EEE6" />
    <g><circle cx="79" cy="220" r="3" fill="#7B746A" opacity="1"/><circle cx="94" cy="217" r="3" fill="#7B746A" opacity="1"/><circle cx="90" cy="234" r="3" fill="#7B746A" opacity="1"/><path d="M82 220 L91 218 M81 222 L88 232 M93 220 L91 231" stroke="#7B746A" stroke-width="1.8" stroke-linecap="round" stroke-linejoin="round"/></g>
    <text x="112" y="230" class="cn" font-size="13" font-weight="700" fill="#7B746A" >图谱</text>
    <rect x="58" y="250" width="192" height="38" rx="10" fill="#E8EFE9" />
    <g><path d="M87 259 V275" stroke="#3F705F" stroke-width="1.8" stroke-linecap="round" stroke-linejoin="round"/><path d="M81 269 L87 275 L93 269" stroke="#3F705F" stroke-width="1.8" stroke-linecap="round" stroke-linejoin="round"/><path d="M78 279 H96" stroke="#3F705F" stroke-width="1.8" stroke-linecap="round" stroke-linejoin="round"/></g>
    <text x="112" y="274" class="cn" font-size="13" font-weight="700" fill="#25221D" >快捷导入</text>
    <rect x="58" y="294" width="192" height="38" rx="10" fill="#F2EEE6" />
    <g><path d="M80 304 H90 L96 310 V324 H80 Z" stroke="#7B746A" stroke-width="1.8" stroke-linecap="round" stroke-linejoin="round"/><path d="M90 304 V310 H96" stroke="#7B746A" stroke-width="1.8" stroke-linecap="round" stroke-linejoin="round"/></g>
    <text x="112" y="318" class="cn" font-size="13" font-weight="700" fill="#7B746A" >源资料</text>
    <rect x="58" y="338" width="192" height="38" rx="10" fill="#F2EEE6" />
    <g><path d="M78 350 H96 V363 H86 L81 368 V363 H78 Z" stroke="#7B746A" stroke-width="1.8" stroke-linecap="round" stroke-linejoin="round"/><path d="M83 355 H92 M83 359 H89" stroke="#7B746A" stroke-width="1.8" stroke-linecap="round" stroke-linejoin="round"/></g>
    <text x="112" y="362" class="cn" font-size="13" font-weight="700" fill="#7B746A" >问答搜索</text>
    <rect x="58" y="382" width="192" height="38" rx="10" fill="#F2EEE6" />
    <g><path d="M87 391 L97 401 L87 411 L77 401 Z" stroke="#7B746A" stroke-width="1.8" stroke-linecap="round" stroke-linejoin="round"/><path d="M87 396 V406 M82 401 H92" stroke="#7B746A" stroke-width="1.8" stroke-linecap="round" stroke-linejoin="round"/></g>
    <text x="112" y="406" class="cn" font-size="13" font-weight="700" fill="#7B746A" >污染治理</text>
    <rect x="58" y="426" width="192" height="38" rx="10" fill="#F2EEE6" />
    <g><circle cx="87" cy="445" r="9" stroke="#7B746A" stroke-width="1.8" stroke-linecap="round" stroke-linejoin="round" fill="none"/><path d="M87 440 V445 L91 448" stroke="#7B746A" stroke-width="1.8" stroke-linecap="round" stroke-linejoin="round"/></g>
    <text x="112" y="450" class="cn" font-size="13" font-weight="700" fill="#7B746A" >模型配置</text>
    <rect x="60" y="774" width="188" height="42" rx="13" fill="#3F705F" />
    <text x="124" y="800" class="cn" font-size="14" font-weight="800" fill="#FFFFFF" >快捷导入</text>
    <text x="66" y="844" class="mono" font-size="11" fill="#7B746A">~/Library/LocalMemory</text>
    <rect x="266" y="98" width="1132" height="766" rx="0" fill="#F8F5EF" />
    <text x="294" y="154" class="cn" font-size="26" font-weight="800" fill="#25221D" >快捷导入</text>
    <text x="294" y="178" class="cn" font-size="13" font-weight="500" fill="#7B746A" >一键把外部资料、本地文件、视频链接送进本地记忆系统。</text>
    
    <rect x="294" y="202" width="774" height="626" rx="18" fill="#FFFFFF" stroke="#DED8CD" />
    <text x="316" y="242" class="cn" font-size="18" font-weight="800" fill="#25221D" >选择导入方式</text>
    <text x="316" y="270" class="cn" font-size="13" font-weight="500" fill="#7B746A" >第一版优先保证资料可信进入系统，并保留源文件追溯。</text>
    <rect x="316" y="316" width="330" height="118" rx="16" fill="#FBFAF7" stroke="#D6CFC3" />
        <g><path d="M348 346 H358 L364 352 V366 H348 Z" stroke="#3F705F" stroke-width="1.8" stroke-linecap="round" stroke-linejoin="round"/><path d="M358 346 V352 H364" stroke="#3F705F" stroke-width="1.8" stroke-linecap="round" stroke-linejoin="round"/></g>
        <text x="390" y="362" class="cn" font-size="16" font-weight="800" fill="#25221D" >飞书文档</text>
        <text x="390" y="388" class="cn" font-size="12" font-weight="500" fill="#7B746A" >粘贴分享链接或授权导入空间文档</text>
        <text x="390" y="410" class="cn" font-size="11" font-weight="500" fill="#7B746A" >支持文档/表格/知识库</text><rect x="680" y="316" width="330" height="118" rx="16" fill="#FBFAF7" stroke="#D6CFC3" />
        <g><path d="M710 348 H728 V361 H718 L713 366 V361 H710 Z" stroke="#3F705F" stroke-width="1.8" stroke-linecap="round" stroke-linejoin="round"/><path d="M715 353 H724 M715 357 H721" stroke="#3F705F" stroke-width="1.8" stroke-linecap="round" stroke-linejoin="round"/></g>
        <text x="754" y="362" class="cn" font-size="16" font-weight="800" fill="#25221D" >有道云笔记</text>
        <text x="754" y="388" class="cn" font-size="12" font-weight="500" fill="#7B746A" >导入笔记本、单篇文档或公开链接</text>
        <text x="754" y="410" class="cn" font-size="11" font-weight="500" fill="#7B746A" >保留源链接和更新时间</text><rect x="316" y="466" width="330" height="118" rx="16" fill="#FBFAF7" stroke="#D6CFC3" />
        <g><circle cx="347" cy="500" r="3" fill="#3F705F" opacity="1"/><circle cx="362" cy="497" r="3" fill="#3F705F" opacity="1"/><circle cx="358" cy="514" r="3" fill="#3F705F" opacity="1"/><path d="M350 500 L359 498 M349 502 L356 512 M361 500 L359 511" stroke="#3F705F" stroke-width="1.8" stroke-linecap="round" stroke-linejoin="round"/></g>
        <text x="390" y="512" class="cn" font-size="16" font-weight="800" fill="#25221D" >视频链接</text>
        <text x="390" y="538" class="cn" font-size="12" font-weight="500" fill="#7B746A" >B站、抖音、小红书等分享链接一键录入</text>
        <text x="390" y="560" class="cn" font-size="11" font-weight="500" fill="#7B746A" >本地解析失败后模型兜底</text><rect x="680" y="466" width="330" height="118" rx="16" fill="#FBFAF7" stroke="#D6CFC3" />
        <g><path d="M719 495 V511" stroke="#3F705F" stroke-width="1.8" stroke-linecap="round" stroke-linejoin="round"/><path d="M713 505 L719 511 L725 505" stroke="#3F705F" stroke-width="1.8" stroke-linecap="round" stroke-linejoin="round"/><path d="M710 515 H728" stroke="#3F705F" stroke-width="1.8" stroke-linecap="round" stroke-linejoin="round"/></g>
        <text x="754" y="512" class="cn" font-size="16" font-weight="800" fill="#25221D" >本地文件</text>
        <text x="754" y="538" class="cn" font-size="12" font-weight="500" fill="#7B746A" >拖入 PDF、Markdown、文本、图片或视频</text>
        <text x="754" y="560" class="cn" font-size="11" font-weight="500" fill="#7B746A" >源文件原样保存</text>
    <rect x="316" y="640" width="730" height="142" rx="18" fill="#F8F5EF" stroke="#DED8CD" />
    <text x="342" y="680" class="cn" font-size="16" font-weight="800" fill="#25221D" >解析循环</text>
    <text x="342" y="708" class="cn" font-size="13" font-weight="500" fill="#7B746A" >本地脚本优先解析。失败时调用模型 API，整理出新规则后沉淀为下一次本地解析能力。</text>
    <circle cx="362" cy="748" r="7" fill="#3F705F" opacity="1"/><text x="382" y="753" class="cn" font-size="13" font-weight="700" fill="#25221D" >本地解析</text><line x1="430" y1="748" x2="510" y2="748" stroke="#D6CFC3"/><circle cx="528" cy="748" r="7" fill="#89948D" opacity="1"/><text x="548" y="753" class="cn" font-size="13" font-weight="700" fill="#25221D" >模型兜底</text><line x1="596" y1="748" x2="676" y2="748" stroke="#D6CFC3"/><circle cx="694" cy="748" r="7" fill="#89948D" opacity="1"/><text x="714" y="753" class="cn" font-size="13" font-weight="700" fill="#25221D" >规则沉淀</text><line x1="762" y1="748" x2="842" y2="748" stroke="#D6CFC3"/><circle cx="860" cy="748" r="7" fill="#89948D" opacity="1"/><text x="880" y="753" class="cn" font-size="13" font-weight="700" fill="#25221D" >下次复用</text>
  
    
    <rect x="1090" y="202" width="280" height="626" rx="18" fill="#FFFFFF" stroke="#DED8CD" />
    <text x="1112" y="242" class="cn" font-size="18" font-weight="800" fill="#25221D" >快捷录入</text>
    <text x="1112" y="274" class="cn" font-size="12" font-weight="500" fill="#7B746A" >支持从聊天软件发送文本、截图、文件和视频到本地解析。</text>
    <rect x="1112" y="326" width="236" height="38" rx="12" fill="#FBFAF7" stroke="#D6CFC3" /><text x="1130" y="350" class="cn" font-size="13" font-weight="700" fill="#25221D" >微信文件助手</text><rect x="1112" y="380" width="236" height="38" rx="12" fill="#FBFAF7" stroke="#D6CFC3" /><text x="1130" y="404" class="cn" font-size="13" font-weight="700" fill="#25221D" >飞书机器人</text><rect x="1112" y="434" width="236" height="38" rx="12" fill="#FBFAF7" stroke="#D6CFC3" /><text x="1130" y="458" class="cn" font-size="13" font-weight="700" fill="#25221D" >系统分享菜单</text><rect x="1112" y="488" width="236" height="38" rx="12" fill="#FBFAF7" stroke="#D6CFC3" /><text x="1130" y="512" class="cn" font-size="13" font-weight="700" fill="#25221D" >剪贴板监听</text>
    <line x1="1112" y1="570" x2="1348" y2="570" stroke="#DED8CD"/>
    <text x="1112" y="612" class="cn" font-size="15" font-weight="700" fill="#25221D" >导入后状态</text>
    <text x="1112" y="642" class="cn" font-size="12" font-weight="500" fill="#7B746A" >源文件保存</text><text x="1290" y="642" class="cn" font-size="12" font-weight="800" fill="#25221D" >必须</text>
    <text x="1112" y="670" class="cn" font-size="12" font-weight="500" fill="#7B746A" >自动分类</text><text x="1290" y="670" class="cn" font-size="12" font-weight="800" fill="#25221D" >建议</text>
    <text x="1112" y="698" class="cn" font-size="12" font-weight="500" fill="#7B746A" >入记忆</text><text x="1290" y="698" class="cn" font-size="12" font-weight="800" fill="#25221D" >可控</text>
  
    
  
</svg>